<?xml version="1.0" encoding="UTF-8"?><svg id="Layer_1" xmlns="http://www.w3.org/2000/svg" viewBox="0 0 412.23 412.23"><defs><style>.cls-1{fill:#fff;stroke-width:0px;}</style></defs><path class="cls-1" d="m309.44,266.24c3.56-3.56,3.56-9.35,0-12.92-1.72-1.73-4.02-2.67-6.46-2.67s-4.74.94-6.46,2.67c-3.56,3.57-3.56,9.36,0,12.92,3.45,3.45,9.47,3.45,12.92,0Zm-9.71-9.71c1.74-1.74,4.77-1.74,6.5,0,1.8,1.79,1.8,4.71,0,6.51-.87.87-2.02,1.35-3.25,1.35s-2.39-.48-3.25-1.35c-1.79-1.8-1.79-4.72,0-6.51Z"/><path class="cls-1" d="m288.56,287.13c3.56-3.56,3.56-9.35,0-12.92-1.78-1.78-4.12-2.67-6.46-2.67s-4.68.89-6.46,2.67c-3.56,3.57-3.56,9.36,0,12.92,3.56,3.57,9.36,3.56,12.92,0Zm-9.71-9.71c1.79-1.8,4.71-1.8,6.51,0,1.8,1.79,1.8,4.71,0,6.5-.89.9-2.08,1.35-3.25,1.35s-2.35-.45-3.25-1.35c-1.79-1.79-1.79-4.71,0-6.5Z"/><path class="cls-1" d="m262.68,290.95c-2.44,0-4.74.95-6.46,2.68-3.56,3.56-3.56,9.35,0,12.92,3.45,3.45,9.47,3.45,12.91,0,3.57-3.57,3.57-9.36,0-12.92-1.72-1.73-4.01-2.68-6.46-2.68Zm3.25,12.39c-.87.87-2.03,1.35-3.25,1.35s-2.38-.48-3.25-1.35c-1.79-1.79-1.79-4.71,0-6.51,1.74-1.74,4.77-1.74,6.51,0,1.79,1.8,1.79,4.72,0,6.51Z"/><path class="cls-1" d="m324.35,272.01c-2.34,0-4.68.9-6.46,2.68-3.56,3.56-3.56,9.36,0,12.92,3.56,3.56,9.36,3.56,12.92,0,3.56-3.56,3.56-9.36,0-12.92-1.78-1.78-4.13-2.68-6.47-2.68Zm3.25,12.39c-.9.9-2.07,1.35-3.25,1.35s-2.35-.44-3.25-1.35c-1.79-1.79-1.79-4.71,0-6.5,1.8-1.8,4.72-1.8,6.51,0,1.79,1.79,1.79,4.71,0,6.5Z"/><path class="cls-1" d="m309.93,308.5c3.56-3.56,3.56-9.36,0-12.92-1.77-1.79-4.12-2.67-6.46-2.67s-4.68.88-6.45,2.67c-3.56,3.56-3.56,9.36,0,12.92,3.55,3.56,9.35,3.56,12.91,0Zm-9.71-9.71c1.8-1.8,4.71-1.8,6.5,0,1.8,1.79,1.8,4.71,0,6.5-.9.9-2.07,1.35-3.25,1.35s-2.35-.44-3.25-1.35c-1.8-1.79-1.8-4.71,0-6.5Z"/><path class="cls-1" d="m284.04,312.32c-2.34,0-4.68.89-6.46,2.68-3.56,3.56-3.56,9.35,0,12.91,3.55,3.57,9.35,3.57,12.91,0,3.56-3.56,3.56-9.35,0-12.91-1.78-1.79-4.12-2.68-6.46-2.68Zm3.25,12.39c-.9.9-2.07,1.34-3.25,1.34s-2.35-.43-3.25-1.34c-1.8-1.8-1.8-4.72,0-6.51,1.8-1.8,4.71-1.79,6.5,0,1.8,1.79,1.8,4.71,0,6.51Z"/><path class="cls-1" d="m351.45,308.25c3.56-3.56,3.56-9.36,0-12.92-1.78-1.78-4.12-2.67-6.46-2.67s-4.68.89-6.47,2.67c-3.56,3.56-3.56,9.36,0,12.92,3.56,3.56,9.36,3.57,12.92,0Zm-9.71-9.71c1.79-1.8,4.71-1.79,6.5,0s1.8,4.71,0,6.51c-.9.89-2.07,1.35-3.25,1.35s-2.35-.46-3.25-1.35c-1.8-1.8-1.8-4.72,0-6.51Z"/><path class="cls-1" d="m324.11,313.54c-2.34,0-4.68.89-6.46,2.67-3.57,3.57-3.57,9.36,0,12.92,3.56,3.56,9.36,3.56,12.92,0,3.56-3.56,3.56-9.35,0-12.92-1.79-1.78-4.12-2.67-6.46-2.67Zm3.25,12.39c-.9.89-2.08,1.33-3.25,1.33s-2.35-.44-3.25-1.33c-1.8-1.8-1.8-4.71,0-6.51,1.79-1.8,4.71-1.79,6.5,0,1.79,1.8,1.79,4.71,0,6.51Z"/><path class="cls-1" d="m304.69,332.97c-2.34,0-4.68.89-6.46,2.67-3.56,3.56-3.56,9.36,0,12.92,3.56,3.56,9.36,3.56,12.92,0,3.56-3.56,3.56-9.36,0-12.92-1.78-1.78-4.12-2.67-6.46-2.67Zm3.25,12.39c-.9.89-2.08,1.34-3.25,1.34s-2.35-.45-3.25-1.34c-1.8-1.8-1.8-4.72,0-6.51,1.8-1.8,4.71-1.8,6.5,0,1.79,1.79,1.79,4.71,0,6.51Z"/><path class="cls-1" d="m122.97,79.78c1.72-1.74,2.67-4.02,2.67-6.47s-.95-4.74-2.67-6.45c-1.79-1.79-4.12-2.68-6.47-2.68s-4.68.89-6.46,2.68c-1.73,1.71-2.68,4.01-2.68,6.45s.95,4.73,2.68,6.47c3.56,3.56,9.36,3.56,12.92,0Zm-9.71-9.72c1.79-1.79,4.71-1.79,6.5,0,.87.87,1.35,2.02,1.35,3.25s-.48,2.39-1.35,3.25c-.89.9-2.08,1.35-3.25,1.35s-2.36-.45-3.25-1.35c-.87-.87-1.35-2.03-1.35-3.25s.48-2.39,1.35-3.25Z"/><path class="cls-1" d="m102.08,100.65c3.56-3.56,3.56-9.35,0-12.92-1.78-1.78-4.12-2.67-6.45-2.67s-4.68.89-6.47,2.67c-3.56,3.57-3.56,9.36,0,12.92,3.56,3.56,9.36,3.57,12.92,0Zm-9.71-9.71c1.8-1.8,4.71-1.79,6.51,0,1.79,1.79,1.79,4.71,0,6.51-.9.89-2.08,1.35-3.25,1.35s-2.36-.46-3.25-1.35c-1.8-1.8-1.8-4.72,0-6.51Z"/><path class="cls-1" d="m82.67,120.08c1.72-1.73,2.67-4.02,2.67-6.47s-.94-4.73-2.67-6.45c-1.79-1.79-4.12-2.68-6.47-2.68s-4.68.89-6.46,2.68c-1.73,1.73-2.67,4.01-2.67,6.45s.95,4.74,2.67,6.47c3.56,3.56,9.36,3.56,12.93,0Zm-9.71-9.72c1.79-1.79,4.71-1.79,6.5,0,.87.87,1.35,2.03,1.35,3.25s-.48,2.39-1.35,3.25c-.9.9-2.08,1.35-3.25,1.35s-2.35-.44-3.25-1.35c-.87-.87-1.35-2.03-1.35-3.25s.48-2.39,1.35-3.25Z"/><path class="cls-1" d="m144.34,101.14c1.73-1.73,2.67-4.01,2.67-6.46s-.95-4.74-2.67-6.47c-1.78-1.78-4.12-2.67-6.47-2.67s-4.68.89-6.46,2.67c-1.73,1.73-2.67,4.01-2.67,6.47s.94,4.73,2.67,6.46c3.56,3.57,9.36,3.56,12.92,0Zm-9.71-9.71c1.79-1.8,4.71-1.8,6.5,0,.87.87,1.35,2.02,1.35,3.25s-.48,2.39-1.35,3.24c-.9.9-2.07,1.35-3.25,1.35s-2.35-.44-3.25-1.35c-.87-.87-1.35-2.02-1.35-3.24s.48-2.39,1.35-3.25Z"/><path class="cls-1" d="m116.99,106.43c-2.34,0-4.68.89-6.45,2.67-1.73,1.73-2.68,4.02-2.68,6.45s.96,4.73,2.68,6.47c3.56,3.56,9.36,3.56,12.91,0,1.73-1.73,2.68-4.01,2.68-6.47s-.95-4.73-2.68-6.45c-1.77-1.78-4.12-2.67-6.46-2.67Zm3.25,12.38c-.9.9-2.07,1.35-3.25,1.35s-2.35-.44-3.25-1.35c-.87-.87-1.35-2.02-1.35-3.25s.48-2.39,1.35-3.25c1.79-1.79,4.7-1.79,6.5,0,.87.87,1.35,2.03,1.35,3.25s-.48,2.39-1.35,3.25Z"/><path class="cls-1" d="m97.57,125.85c-2.34,0-4.68.89-6.46,2.67-1.73,1.74-2.68,4.02-2.68,6.47s.95,4.74,2.68,6.45c3.56,3.57,9.35,3.57,12.91,0,1.73-1.73,2.68-4.01,2.68-6.45s-.95-4.73-2.68-6.47c-1.78-1.78-4.12-2.67-6.45-2.67Zm3.25,12.39c-.9.9-2.08,1.35-3.25,1.35s-2.35-.44-3.25-1.35c-.87-.87-1.35-2.03-1.35-3.25s.48-2.39,1.35-3.25c1.79-1.79,4.71-1.79,6.51,0,.87.87,1.34,2.03,1.34,3.25s-.47,2.39-1.34,3.25Z"/><path class="cls-1" d="m164.97,121.78c3.56-3.57,3.56-9.36,0-12.92-1.78-1.79-4.12-2.68-6.46-2.68s-4.68.89-6.46,2.68c-3.56,3.56-3.56,9.35,0,12.92,3.56,3.56,9.36,3.56,12.91,0Zm-9.71-9.72c1.79-1.79,4.71-1.8,6.5,0,1.8,1.8,1.8,4.72,0,6.51-.9.9-2.07,1.35-3.25,1.35s-2.36-.44-3.25-1.35c-1.8-1.79-1.8-4.71,0-6.51Z"/><path class="cls-1" d="m144.09,142.66c1.73-1.73,2.67-4.02,2.67-6.47s-.95-4.74-2.67-6.45c-1.72-1.73-4.02-2.68-6.46-2.68s-4.74.95-6.46,2.68c-1.73,1.71-2.68,4.01-2.68,6.45s.95,4.74,2.68,6.47c3.56,3.56,9.36,3.56,12.92,0Zm-9.71-9.72c1.74-1.74,4.77-1.74,6.5,0,.87.87,1.35,2.02,1.35,3.25s-.48,2.39-1.35,3.25c-.9.9-2.07,1.35-3.25,1.35s-2.35-.46-3.25-1.35c-.87-.88-1.35-2.03-1.35-3.25s.48-2.39,1.35-3.25Z"/><path class="cls-1" d="m118.2,146.49c-2.34,0-4.68.89-6.46,2.67-1.73,1.73-2.68,4.02-2.68,6.47s.95,4.73,2.68,6.45c3.56,3.57,9.36,3.56,12.92,0,1.73-1.73,2.67-4.01,2.67-6.45s-.95-4.74-2.67-6.47c-1.78-1.78-4.12-2.67-6.47-2.67Zm3.25,12.39c-.9.89-2.08,1.34-3.25,1.34s-2.36-.45-3.25-1.34c-.87-.87-1.35-2.03-1.35-3.25s.48-2.4,1.35-3.25c1.8-1.8,4.71-1.79,6.5,0,.87.86,1.35,2.02,1.35,3.25s-.48,2.39-1.35,3.25Z"/><path class="cls-1" d="m412.23,92.57c0-13.28-5.17-25.76-14.56-35.15l-42.86-42.86c-9.39-9.39-21.88-14.56-35.15-14.56s-25.76,5.16-35.15,14.56l-78.41,78.4L127.7,14.56C118.31,5.16,105.82,0,92.54,0s-25.76,5.16-35.15,14.56L14.54,57.42c-19.38,19.38-19.38,50.91,0,70.3l78.41,78.41L14.54,284.53c-19.38,19.39-19.38,50.92,0,70.31l42.86,42.85c19.38,19.39,50.92,19.39,70.3,0l78.41-78.4,78.41,78.4c19.37,19.39,50.92,19.39,70.29,0l42.86-42.85c9.39-9.39,14.56-21.88,14.56-35.16s-5.17-25.75-14.56-35.15l-78.41-78.41,78.41-78.41c9.39-9.38,14.56-21.87,14.56-35.15Zm-111.68,289.09l-78.4-78.41,81.08-81.08,78.41,78.41c5.1,5.1,7.91,11.89,7.91,19.1s-2.81,14.02-7.91,19.13l-42.85,42.85c-5.11,5.11-11.9,7.92-19.12,7.92s-14-2.81-19.11-7.92Zm-188.89,0c-5.27,5.27-12.19,7.91-19.12,7.91s-13.85-2.64-19.11-7.91l-42.86-42.85c-5.1-5.11-7.92-11.9-7.92-19.13s2.81-14,7.92-19.1L300.55,30.59c5.1-5.1,11.89-7.92,19.11-7.92s14.01,2.82,19.11,7.92h0l42.85,42.86c5.1,5.11,7.91,11.89,7.91,19.11s-2.81,14-7.91,19.11L111.66,381.65ZM92.54,22.67c7.22,0,14.01,2.82,19.12,7.92l78.4,78.41-81.08,81.09L30.57,111.68c-5.1-5.11-7.92-11.89-7.92-19.11s2.81-14,7.92-19.11l42.86-42.86c5.1-5.1,11.89-7.92,19.11-7.92Z"/><path class="cls-1" d="m240.17,150.63h0c-5.3-5.3-12.26-7.95-19.23-7.95s-13.92,2.65-19.22,7.95l-56.93,56.93c-5.14,5.13-7.96,11.95-7.96,19.22s2.83,14.09,7.96,19.22l21.22,21.22c5.13,5.13,11.96,7.96,19.22,7.96s14.09-2.83,19.23-7.96l56.93-56.93c10.6-10.61,10.6-27.85,0-38.46l-21.21-21.21Zm-48.55,103.76c-3.42,3.42-9.37,3.42-12.79,0l-21.22-21.21c-1.7-1.71-2.65-3.98-2.65-6.4s.94-4.69,2.65-6.4l56.94-56.93c3.52-3.51,9.27-3.52,12.8,0l21.21,21.22c3.53,3.53,3.53,9.26,0,12.79l-56.94,56.93Z"/><path class="cls-1" d="m152.44,293.87c-2.33,0-4.67.89-6.45,2.67-3.56,3.57-3.56,9.36,0,12.92,3.56,3.57,9.36,3.57,12.92,0,3.56-3.56,3.56-9.35,0-12.92-1.78-1.78-4.12-2.67-6.47-2.67Zm3.26,12.39c-.9.89-2.08,1.33-3.26,1.33s-2.35-.44-3.25-1.33c-1.8-1.8-1.8-4.72,0-6.51,1.79-1.8,4.71-1.8,6.51,0,1.79,1.79,1.79,4.71,0,6.51Z"/><path class="cls-1" d="m131.56,272.99c-2.34,0-4.68.89-6.46,2.67-1.73,1.74-2.67,4.01-2.67,6.47s.95,4.73,2.67,6.47c3.56,3.56,9.36,3.56,12.91,0,1.72-1.74,2.68-4.02,2.68-6.47s-.96-4.74-2.68-6.47c-1.77-1.78-4.11-2.67-6.46-2.67Zm3.25,12.39c-.9.89-2.07,1.35-3.25,1.35s-2.35-.46-3.25-1.35c-.87-.87-1.35-2.03-1.35-3.25s.47-2.39,1.35-3.25c1.8-1.8,4.71-1.79,6.5,0,.87.87,1.35,2.03,1.35,3.25s-.48,2.39-1.35,3.25Z"/><path class="cls-1" d="m112.14,253.56c-2.34,0-4.68.9-6.46,2.68-1.73,1.73-2.67,4.01-2.67,6.45s.94,4.74,2.67,6.47c3.56,3.56,9.36,3.56,12.91,0,1.73-1.73,2.68-4.02,2.68-6.47s-.96-4.73-2.68-6.45c-1.78-1.78-4.11-2.68-6.45-2.68Zm3.25,12.39c-.9.9-2.08,1.35-3.25,1.35s-2.35-.44-3.25-1.35-1.35-2.02-1.35-3.25.48-2.37,1.35-3.24c1.8-1.81,4.71-1.8,6.5,0,.87.87,1.35,2.02,1.35,3.24s-.48,2.39-1.35,3.25Z"/><path class="cls-1" d="m131.08,315.24c-2.34,0-4.68.89-6.47,2.67-1.72,1.73-2.67,4.01-2.67,6.46s.94,4.74,2.67,6.47c3.56,3.56,9.36,3.56,12.93,0,1.72-1.72,2.67-4.02,2.67-6.47s-.95-4.73-2.67-6.46c-1.78-1.78-4.12-2.67-6.46-2.67Zm3.25,12.38c-.89.9-2.08,1.35-3.25,1.35s-2.36-.45-3.26-1.35c-.87-.87-1.34-2.02-1.34-3.25s.47-2.38,1.34-3.24c1.79-1.79,4.71-1.8,6.51,0,.87.87,1.35,2.02,1.35,3.24s-.48,2.39-1.35,3.25Z"/><path class="cls-1" d="m116.65,309.95c3.56-3.57,3.56-9.36,0-12.92-1.78-1.78-4.12-2.67-6.45-2.67s-4.68.89-6.47,2.67c-3.56,3.56-3.56,9.35,0,12.92,3.56,3.56,9.36,3.56,12.92,0Zm-9.71-9.71c1.8-1.8,4.71-1.79,6.51,0,1.79,1.79,1.79,4.71,0,6.51-.91.89-2.08,1.33-3.26,1.33s-2.35-.45-3.25-1.33c-1.8-1.8-1.8-4.72,0-6.51Z"/><path class="cls-1" d="m90.77,274.93c-2.34,0-4.68.9-6.47,2.68-1.73,1.73-2.67,4.01-2.67,6.46s.95,4.74,2.67,6.45c3.56,3.57,9.36,3.57,12.92,0,1.73-1.71,2.68-4.01,2.68-6.45s-.95-4.74-2.68-6.46c-1.78-1.78-4.12-2.68-6.46-2.68Zm3.25,12.39c-.9.89-2.07,1.35-3.25,1.35s-2.35-.46-3.25-1.35c-.87-.88-1.35-2.03-1.35-3.25s.48-2.39,1.35-3.25c1.79-1.8,4.71-1.79,6.5,0,.87.87,1.35,2.03,1.35,3.25s-.48,2.37-1.35,3.25Z"/><path class="cls-1" d="m110.44,335.88c-2.34,0-4.69.89-6.46,2.68-1.73,1.73-2.68,4.01-2.68,6.46s.95,4.73,2.68,6.45c3.56,3.57,9.35,3.57,12.91,0,1.73-1.72,2.68-4.01,2.68-6.45s-.95-4.74-2.68-6.46c-1.78-1.79-4.12-2.68-6.45-2.68Zm3.25,12.39c-.9.9-2.08,1.35-3.25,1.35s-2.35-.45-3.25-1.35c-.87-.87-1.34-2.03-1.34-3.25s.47-2.39,1.34-3.25c1.8-1.8,4.71-1.79,6.51,0,.87.87,1.35,2.02,1.35,3.25s-.48,2.39-1.35,3.25Z"/><path class="cls-1" d="m89.55,315c-2.33,0-4.68.89-6.46,2.67-3.56,3.56-3.56,9.35,0,12.92,3.56,3.55,9.36,3.56,12.93,0,3.56-3.57,3.56-9.36,0-12.92-1.78-1.78-4.12-2.67-6.47-2.67Zm3.25,12.38c-.9.9-2.07,1.35-3.25,1.35s-2.35-.45-3.25-1.35c-1.79-1.8-1.79-4.72,0-6.51,1.79-1.79,4.71-1.79,6.5,0,1.8,1.79,1.8,4.71,0,6.51Z"/><path class="cls-1" d="m70.13,295.58c-2.34,0-4.68.89-6.46,2.67-3.56,3.56-3.56,9.36,0,12.92,3.56,3.55,9.36,3.57,12.92,0,3.56-3.56,3.56-9.36,0-12.92-1.78-1.78-4.12-2.67-6.46-2.67Zm3.25,12.38c-.9.9-2.08,1.34-3.25,1.34s-2.35-.44-3.25-1.34c-1.8-1.79-1.8-4.71,0-6.5,1.79-1.8,4.71-1.8,6.5,0,1.8,1.79,1.8,4.71,0,6.5Z"/><path class="cls-1" d="m345.38,123c3.56-3.57,3.56-9.36,0-12.92-1.73-1.74-4.02-2.68-6.47-2.68s-4.73.94-6.45,2.68c-3.56,3.56-3.56,9.35,0,12.92,3.44,3.45,9.46,3.45,12.92,0Zm-9.72-9.72c1.74-1.74,4.77-1.74,6.51,0,1.79,1.8,1.79,4.72,0,6.51-.87.87-2.03,1.35-3.26,1.35s-2.38-.48-3.25-1.35c-1.8-1.79-1.8-4.71,0-6.51Z"/><path class="cls-1" d="m324.5,102.1c3.56-3.56,3.56-9.35,0-12.91-1.77-1.79-4.11-2.67-6.46-2.67s-4.68.88-6.46,2.67c-3.56,3.56-3.56,9.35,0,12.91,3.56,3.57,9.36,3.57,12.91,0Zm-9.71-9.71c1.8-1.79,4.71-1.79,6.51,0,1.8,1.8,1.8,4.72,0,6.51-.9.9-2.07,1.35-3.25,1.35s-2.35-.44-3.26-1.35c-1.79-1.79-1.79-4.71,0-6.51Z"/><path class="cls-1" d="m305.07,82.68c3.56-3.56,3.56-9.36,0-12.92-1.78-1.78-4.12-2.67-6.45-2.67s-4.69.89-6.46,2.67c-3.56,3.56-3.56,9.36,0,12.92,3.56,3.56,9.35,3.57,12.91,0Zm-9.71-9.72c1.79-1.79,4.71-1.79,6.5,0,1.8,1.8,1.8,4.72,0,6.51-.9.9-2.08,1.35-3.25,1.35s-2.36-.44-3.25-1.35c-1.8-1.79-1.8-4.71,0-6.51Z"/><path class="cls-1" d="m324.01,144.35c3.56-3.56,3.56-9.36,0-12.92-1.72-1.72-4.02-2.68-6.46-2.68s-4.74.96-6.46,2.68c-3.56,3.56-3.56,9.36,0,12.92,3.45,3.45,9.47,3.45,12.92,0Zm-9.71-9.71c1.74-1.74,4.77-1.74,6.5,0,1.8,1.79,1.8,4.71,0,6.51-.87.87-2.02,1.35-3.25,1.35s-2.39-.48-3.25-1.35c-1.79-1.8-1.79-4.72,0-6.51Z"/><path class="cls-1" d="m303.13,123.47c3.56-3.56,3.56-9.35,0-12.92-1.78-1.78-4.12-2.67-6.46-2.67s-4.68.89-6.46,2.67c-3.56,3.57-3.56,9.36,0,12.92,3.56,3.57,9.36,3.56,12.92,0Zm-9.71-9.71c1.79-1.79,4.71-1.8,6.5,0,1.8,1.79,1.8,4.71,0,6.51-.9.89-2.07,1.34-3.25,1.34s-2.36-.45-3.25-1.34c-1.8-1.8-1.8-4.72,0-6.51Z"/><path class="cls-1" d="m283.71,104.04c3.56-3.56,3.56-9.35,0-12.92-1.73-1.71-4.02-2.67-6.46-2.67s-4.74.95-6.46,2.67c-3.56,3.57-3.56,9.36,0,12.92,3.44,3.46,9.47,3.46,12.92,0Zm-9.71-9.71c1.74-1.74,4.77-1.74,6.5,0,1.8,1.8,1.8,4.72,0,6.51-.87.87-2.03,1.35-3.25,1.35s-2.38-.48-3.25-1.35c-1.8-1.79-1.8-4.71,0-6.51Z"/><path class="cls-1" d="m296.91,149.4c-2.34,0-4.68.9-6.46,2.68-3.56,3.56-3.56,9.36,0,12.92,3.56,3.56,9.36,3.56,12.92,0,3.56-3.56,3.56-9.36,0-12.92-1.78-1.78-4.12-2.68-6.46-2.68Zm3.25,12.39c-.9.9-2.07,1.34-3.25,1.34s-2.35-.44-3.25-1.34c-1.8-1.8-1.8-4.71,0-6.5,1.8-1.8,4.71-1.8,6.5,0,1.8,1.79,1.8,4.7,0,6.5Z"/><path class="cls-1" d="m282.5,144.12c3.56-3.57,3.56-9.36,0-12.92-1.78-1.78-4.13-2.68-6.47-2.68s-4.68.9-6.46,2.68c-3.56,3.56-3.56,9.35,0,12.92,3.56,3.56,9.36,3.56,12.93,0Zm-9.72-9.72c1.8-1.79,4.72-1.79,6.51,0,1.79,1.8,1.79,4.72,0,6.51-.9.9-2.08,1.35-3.25,1.35s-2.35-.45-3.25-1.35c-1.79-1.79-1.79-4.71,0-6.51Z"/><path class="cls-1" d="m263.07,124.7c3.56-3.57,3.56-9.37,0-12.93-1.73-1.73-4.02-2.68-6.47-2.68s-4.73.95-6.46,2.68c-3.56,3.56-3.56,9.36,0,12.93,3.45,3.44,9.47,3.44,12.92,0Zm-9.71-9.72c1.74-1.74,4.77-1.74,6.51,0,1.79,1.79,1.79,4.71,0,6.5-.87.87-2.02,1.36-3.26,1.36s-2.38-.49-3.25-1.36c-1.79-1.79-1.79-4.71,0-6.5Z"/></svg>