<?xml version="1.0" encoding="utf-8"?>
<!-- Generator: Adobe Illustrator 27.8.0, SVG Export Plug-In . SVG Version: 6.00 Build 0)  -->
<svg version="1.1" id="Layer_1" xmlns="http://www.w3.org/2000/svg" xmlns:xlink="http://www.w3.org/1999/xlink" x="0px" y="0px"
	 viewBox="0 0 595.28 841.89" style="enable-background:new 0 0 595.28 841.89;" xml:space="preserve">
<style type="text/css">
	.st0{fill:#FFFFFF;}
</style>
<g id="XMLID_18631_">
	<path id="XMLID_18640_" class="st0" d="M397.22,301.95H213.96c-3.02,0-5.48,2.46-5.48,5.48v123.54c0,3.03,2.46,5.48,5.48,5.48
		h183.25c3.03,0,5.48-2.46,5.48-5.48V307.44C402.7,304.41,400.25,301.95,397.22,301.95z M391.74,425.49H219.45V312.92h172.29V425.49
		z"/>
	<path id="XMLID_18635_" class="st0" d="M476.12,494.49c-0.02-0.13-0.05-0.25-0.08-0.38c-0.05-0.2-0.11-0.4-0.18-0.6
		c-0.04-0.12-0.08-0.24-0.14-0.35c-0.1-0.22-0.22-0.43-0.34-0.63c-0.04-0.07-0.08-0.16-0.13-0.23c-0.18-0.27-0.39-0.53-0.62-0.76
		c-0.06-0.06-0.12-0.1-0.19-0.16c-0.18-0.17-0.37-0.33-0.57-0.47c-0.11-0.07-0.22-0.14-0.33-0.2c-0.13-0.07-0.24-0.16-0.38-0.23
		l-41.47-20.51V284.78c0-3.03-2.45-5.48-5.48-5.48H184.98c-3.03,0-5.48,2.46-5.48,5.48v185.23l-40.2,20.5
		c-0.11,0.06-0.22,0.14-0.33,0.21c-0.11,0.07-0.23,0.14-0.34,0.21c-0.18,0.13-0.36,0.28-0.53,0.43c-0.07,0.07-0.16,0.13-0.23,0.2
		c-0.23,0.24-0.44,0.49-0.63,0.76c-0.02,0.03-0.04,0.07-0.06,0.1c-0.15,0.24-0.29,0.49-0.41,0.75c-0.05,0.11-0.08,0.23-0.12,0.34
		c-0.07,0.2-0.14,0.4-0.19,0.61c-0.03,0.13-0.05,0.25-0.07,0.38c-0.04,0.22-0.06,0.44-0.07,0.66c0,0.08-0.02,0.15-0.02,0.22v14.88
		c0,3.03,2.46,5.48,5.48,5.48h328.94c3.03,0,5.48-2.46,5.48-5.48v-14.88c0-0.08-0.02-0.15-0.02-0.22
		C476.18,494.94,476.15,494.72,476.12,494.49z M190.46,290.26h230.25v177.63H190.46V290.26z M186.3,478.85h238.62l22.36,11.06
		H164.61L186.3,478.85z M465.24,504.79H147.27v-3.92h317.97V504.79z"/>
	<path id="XMLID_18632_" class="st0" d="M307.78,439.56c-6.5,0-11.79,5.29-11.79,11.79c0,6.5,5.29,11.79,11.79,11.79
		c6.5,0,11.79-5.29,11.79-11.79C319.57,444.85,314.28,439.56,307.78,439.56z M307.78,456.56c-2.87,0-5.21-2.34-5.21-5.21
		s2.34-5.21,5.21-5.21c2.87,0,5.21,2.34,5.21,5.21S310.66,456.56,307.78,456.56z"/>
</g>
</svg>
