<?xml version="1.0" encoding="utf-8"?>
<!-- Generator: Adobe Illustrator 27.8.0, SVG Export Plug-In . SVG Version: 6.00 Build 0)  -->
<svg version="1.1" id="Layer_1" xmlns="http://www.w3.org/2000/svg" xmlns:xlink="http://www.w3.org/1999/xlink" x="0px" y="0px"
	 viewBox="0 0 595.28 841.89" style="enable-background:new 0 0 595.28 841.89;" xml:space="preserve">
<style type="text/css">
	.st0{fill:#FFFFFF;}
</style>
<g id="XMLID_18504_">
	<path id="XMLID_18508_" class="st0" d="M478.9,440.41c8.36-23.36,8.25-48.05,6.99-72.44c-1.69-32.68-4.43-65.32-7.41-97.93
		c-1.9-20.81-17.02-34.97-35.69-34.97c-6.78,0-13.17,1.96-18.69,5.4c6.55-23.02-2.14-37.45-33.25-48.58
		c-0.14-0.05-0.23-0.2-0.23-0.34c0.62-16.67-3.42-26.89-18.23-35.37c-15.09-8.65-29.78-9.7-43.17,7.52
		c-0.09,0.13-3.64,4.59-3.67,4.42c-2.03-9.38-9.79-15.26-16.07-18.01c-10.57-4.64-20.26-4.62-28.89-0.12
		c-2.69,0.68-5.44,1.66-8.24,3.03c-6.17,2.99-13.7,9.18-15.36,18.63c-0.03,0.16-3.74-4.15-3.85-4.29
		c-14.05-16.67-28.68-15.04-43.42-5.82c-14.47,9.06-18.1,19.42-16.84,36.05c0.01,0.15-0.08,0.29-0.22,0.35
		c-28.3,11.39-37.4,24.85-32.76,44.77c-5.32-2.75-11.29-4.19-17.54-3.95c-18.64,0.72-33.2,15.47-34.29,36.34
		c-1.71,32.69-3.16,65.42-3.58,98.14c-0.31,24.44,0.54,49.09,9.81,72.1l-32.14,53.57l155.37,93.24l35.35-58.89
		c7.98-2.14,15.79-5.36,23.39-9.58c8.98,4.99,18.19,8.63,27.58,10.76l37.61,57.47l151.62-99.24L478.9,440.41z M374.26,224.54
		c7.29-12.14,14.83-15.38,24.37-10.65c10.05,4.97,12.79,12.87,5.81,25.57c-5.83,10.61-11.85,21.1-17.92,31.57
		c-6.98-10.67-13.97-21.35-20.96-32.02C368.47,234.18,371.36,229.36,374.26,224.54z M404.71,281.43c-0.31,4.04-0.62,8.46-1.03,13.61
		c-0.03,0.32-0.46,0.44-0.65,0.18c-2.13-2.93-3.73-5.05-5.12-6.99C399.89,285.49,402.11,283.04,404.71,281.43z M337.6,182.01
		c6.55-10.85,14.41-14.39,23.02-10.88c11.52,4.71,14.46,15.55,7.18,27.75c-4.53,7.58-9.09,15.15-13.63,22.71
		c-7.01-10.69-14.03-21.39-21.06-32.09C334.61,187.01,336.1,184.51,337.6,182.01z M276.17,512.52c-3.55,1.26-7.22,2.29-11.04,3.13
		l-10.06,16.75l-2.41,4.02l-23.38,38.96l-128.42-77.07l21.7-36.16l3.01-5.01l7.77-12.96c-1.37-2.99-2.6-6.06-3.65-9.19
		c-1.15-3.42-2.12-6.9-2.88-10.47c-1.49-6.96-2.31-14.16-2.4-21.58c-0.43-42.06,0.79-84.16,1.83-126.22
		c0.28-11.5,7.61-19.03,16.56-19.5c7.94-0.42,14.39,3.77,17.53,11.49c-2.29,1.22-4.52,2.9-7.18,5.89
		c-13.04,14.69-14.47,36.43-3.99,53.06c30.51,48.49,61.58,96.65,93.29,144.37c6.18,9.3,13.08,18.13,20.9,26.1
		c4.91,5,9.91,9.49,14.99,13.52C277.61,511.94,276.91,512.26,276.17,512.52z M344.21,536.82l-2.57-3.92l-10.7-16.36
		c-3.84-0.68-7.56-1.59-11.15-2.69c-4.39-1.35-8.6-3.02-12.64-4.96c-18.17-8.76-32.8-23.16-45.05-40.88
		c-16.61-24.03-32.13-48.8-48.12-73.24c-16.79-25.66-33.68-51.23-50.27-77.01c-2.84-4.43-7.54-10.9-6.55-18.61
		c0.72-5.58,3.65-8.91,7.9-11.85c3.82-2.66,11.91-2.07,16.56,0.23c5.04,2.49,8.88,8.22,12.24,13.22
		c7.89,11.74,15.54,23.63,23.31,35.43c3.78,5.76,7.58,11.5,11.45,17.2c4.11,6.07,11.94,22.91,21.31,16.33
		c8.6-6.04-2.71-19.62-6.31-25.09c-3.8-5.75-7.57-11.53-11.28-17.34c-17.24-27.02-34.85-53.83-51.38-81.27
		c-7.48-12.43-5.04-20.42,4.81-25.8c9.34-5.09,17-2.14,24.76,9.71c20.17,30.76,40.3,61.55,60.46,92.32
		c2.83,4.32,4.52,7.89,9.85,9.69c3.93,1.32,7.82,0.59,9.3-3.42c2.5-6.79,0.48-10.39-3.09-15.83
		c-23.69-36.23-47.44-72.39-71.07-108.65c-7.75-11.9-5.24-22.86,6.08-27.99c8.48-3.85,16.47-0.63,23.43,9.95
		c24.17,36.77,48.27,73.59,72.27,110.45c3.92,6.02,8.65,11.08,15.64,6.16c6.68-4.68,2.9-10.72-0.64-16.09
		c-18.63-28.32-37.19-56.69-55.69-85.11c-2.46-3.77-4.95-7.73-6.25-11.98c-2.94-9.63,3.65-19.59,13.55-21.34
		c10.15-1.79,15.09,4.27,19.78,11.46c31.52,48.32,63.03,96.67,94.99,144.72c2.95,4.43,9.13,9.6,13.67,9.48
		c8.48-0.23,7.57-9.01,8.1-15.25c1.32-15.43,1.97-30.91,3.57-46.3c1.22-11.89,8.64-18.77,18.59-18.64
		c8.96,0.12,16.58,7.37,17.3,18.84c2.68,41.99,5.55,83.99,6.75,126.05c0.22,7.42-0.33,14.64-1.54,21.66
		c-0.62,3.59-1.46,7.1-2.47,10.57c-0.93,3.15-2.03,6.26-3.29,9.31l8.28,12.65l3.19,4.88l23.09,35.29L369.1,574.83L344.21,536.82z"/>
	<path id="XMLID_18505_" class="st0" d="M378.96,343.58c-13.68,0-26.31,7.52-33.55,19.58c-7.25-12.06-19.9-19.58-33.58-19.58
		c-16.64,0-31.65,11.2-37.36,27.86c-1.61,4.7-2.42,9.52-2.42,14.38c0,4.76,0.75,9.46,2.22,13.88c0.16,0.5,0.35,0.94,0.54,1.33
		l6.17-2.89l-6.15,2.93l6.16-2.91l-6.15,2.91c0.08,0.18,0.16,0.34,0.27,0.62c1.72,4.43,3.92,8.32,6.53,11.58
		c1.28,1.58,2.69,3.09,4.23,4.5l59.63,63.15l61.7-65.37c4.08-4.37,7.27-9.73,9.22-15.48c1.55-4.57,2.34-9.38,2.34-14.26
		C418.74,362.53,400.9,343.58,378.96,343.58z M403.52,395.72c-1.33,3.94-3.51,7.57-6.41,10.68l-51.63,54.7l-49.89-52.85l-0.37-0.35
		c-1.09-1-2.1-2.07-2.99-3.18c-1.74-2.14-3.23-4.82-4.4-7.85c-0.21-0.56-0.44-1.08-0.7-1.61c-0.97-3.03-1.47-6.21-1.47-9.44
		c0-3.36,0.57-6.7,1.68-9.97c3.83-11.17,13.66-18.67,24.48-18.67c10.13,0,19.46,6.53,23.76,16.62c1.68,3.95,5.53,6.48,9.82,6.48
		c4.28,0,8.13-2.54,9.81-6.48c4.3-10.09,13.62-16.62,23.74-16.62c14.44,0,26.18,12.85,26.18,28.64
		C405.13,389.23,404.59,392.55,403.52,395.72z"/>
</g>
</svg>
