<?xml version="1.0" encoding="utf-8"?>
<!-- Generator: Adobe Illustrator 27.8.0, SVG Export Plug-In . SVG Version: 6.00 Build 0)  -->
<svg version="1.1" id="Layer_1" xmlns="http://www.w3.org/2000/svg" xmlns:xlink="http://www.w3.org/1999/xlink" x="0px" y="0px"
	 viewBox="0 0 595.28 841.89" style="enable-background:new 0 0 595.28 841.89;" xml:space="preserve">
<style type="text/css">
	.st0{fill:#FFFFFF;}
</style>
<g id="XMLID_18695_">
	<path id="XMLID_18699_" class="st0" d="M384.81,343.96c1.69-6.95,2.54-14.08,2.54-21.21c0-49.46-40.24-89.71-89.71-89.71
		c-49.47,0-89.71,40.24-89.71,89.71c0,7.14,0.86,14.27,2.54,21.21c2.4,14.56,5.7,26.29,9.79,34.9
		c8.82,18.51,45.91,79.65,62.95,107.49c-23.03,2.93-33.72,12.83-33.72,22.16c0,11.11,15.07,23.06,48.15,23.06
		c33.08,0,48.14-11.96,48.14-23.06c0-9.33-10.69-19.23-33.71-22.16c17.03-27.85,54.13-88.98,62.94-107.49
		C379.12,370.25,382.41,358.51,384.81,343.96z M331.91,508.51c-0.93,2.62-12.52,9.21-34.27,9.21c-22.01,0-33.61-6.74-34.3-9.12
		c0.62-2.3,10.08-7.95,27.95-9.07c0.21,0.33,0.37,0.59,0.45,0.73c1.26,2.05,3.49,3.29,5.9,3.29c2.4,0,4.63-1.25,5.9-3.29
		c0.08-0.14,0.24-0.4,0.45-0.74C321.62,500.64,331.07,506.16,331.91,508.51z M371.29,340.92c-0.04,0.18-0.08,0.36-0.11,0.53
		c-2.16,13.2-5.16,24.08-8.67,31.45c-8.9,18.69-49.51,85.4-64.87,110.47c-15.35-25.07-55.97-91.78-64.87-110.47
		c-3.51-7.38-6.51-18.26-8.67-31.45c-0.03-0.18-0.06-0.36-0.11-0.54c-1.47-5.95-2.21-12.06-2.21-18.17
		c0-41.82,34.03-75.86,75.86-75.86c41.82,0,75.86,34.03,75.86,75.86C373.5,328.85,372.75,334.97,371.29,340.92z"/>
	<path id="XMLID_18696_" class="st0" d="M297.64,272.3c-26.55,0-48.15,21.6-48.15,48.14c0,26.55,21.6,48.15,48.15,48.15
		c26.54,0,48.14-21.6,48.14-48.15C345.78,293.9,324.18,272.3,297.64,272.3z M297.64,354.74c-18.91,0-34.29-15.38-34.29-34.29
		c0-18.9,15.38-34.28,34.29-34.28c18.9,0,34.28,15.38,34.28,34.28C331.93,339.36,316.55,354.74,297.64,354.74z"/>
</g>
</svg>
